<?xml version="1.0" encoding="utf-8"?>
<!-- Generator: Adobe Illustrator 19.0.0, SVG Export Plug-In . SVG Version: 6.00 Build 0)  -->
<svg version="1.1" id="Layer_1" xmlns="http://www.w3.org/2000/svg" xmlns:xlink="http://www.w3.org/1999/xlink" x="0px" y="0px"
	 viewBox="0 0 500 500" style="enable-background:new 0 0 500 500;" xml:space="preserve">
<style type="text/css">
	.st0{fill:url(#XMLID_19_);}
	.st1{fill:url(#XMLID_20_);}
</style>
<g id="XMLID_1_">
	
		<linearGradient id="XMLID_19_" gradientUnits="userSpaceOnUse" x1="1.0547" y1="3.4063" x2="6.7578" y2="3.4063" gradientTransform="matrix(0 64 64 0 31.9998 -1.000000e-004)">
		<stop  offset="0" style="stop-color:#00EA66"/>
		<stop  offset="1" style="stop-color:#00D50F"/>
	</linearGradient>
	<path id="XMLID_3_" class="st0" d="M432.5,153V347c0,47.2-38.3,85.5-85.5,85.5H153c-47.2,0-85.5-38.3-85.5-85.5V153
		c0-47.2,38.3-85.5,85.5-85.5H347C394.2,67.5,432.5,105.8,432.5,153z"/>
	
		<linearGradient id="XMLID_20_" gradientUnits="userSpaceOnUse" x1="-17.2083" y1="-13.3345" x2="-11.5052" y2="-13.3345" gradientTransform="matrix(0 -16.6606 -16.3295 0 32.2597 47.073)">
		<stop  offset="0" style="stop-color:#E5F5D9"/>
		<stop  offset="1" style="stop-color:#FFFFFF"/>
	</linearGradient>
	<path id="XMLID_4_" class="st1" d="M250.1,164.5c-20,0-38.6,5.2-54,14.1c-2.6,1.5-5.2,3-7.6,4.7c-2.3,1.7-4.5,3.5-6.6,5.3l-0.3,0.1
		c-17.5,15-28.5,35.8-28.5,58.7c0,22.6,10.7,43,27.8,58c0.1,0.6,0.1,1.3,0.1,1.7c0,13.2-10.2,24-23.1,24.2
		c6.3,2.6,13.4,4.2,20.6,4.2c12.5,0,23.7-4.6,32.9-11.9c11.9,4.4,25,7,38.8,7c53.5,0,96.9-37.3,96.9-83.2
		C347,201.6,303.6,164.5,250.1,164.5z"/>
</g>
</svg>
